<svg preserveAspectRatio="xMidYMid meet" overflow="visible" style="display: block;" width="27.1383" height="27.1376" viewBox="0 0 27.1383 27.1376" fill="none" xmlns="http://www.w3.org/2000/svg">
<path id="Icon" fill-rule="evenodd" clip-rule="evenodd" d="M26.156 0H24.3142C23.823 0 23.3933 0.430755 23.3933 0.923047V5.2306C23.3933 5.78443 23.0863 6.03057 22.6565 5.66135C22.4724 5.41521 22.2882 5.2306 22.0426 5.04599C18.9729 1.96917 14.6753 0.676901 10.2549 1.53841C8.72007 1.84609 7.24661 2.46146 5.95733 3.32297C2.21229 5.78443 0.0634908 9.7843 0.0020966 14.0919C-0.0592976 17.4148 1.22998 20.7378 3.56296 23.1377C6.01873 25.7222 9.33401 27.1376 12.8949 27.1376C16.026 27.1376 18.9729 26.0299 21.3059 24.0608C21.7356 23.6915 21.7356 23.0762 21.3673 22.707L20.078 21.4147C19.771 21.107 19.2185 21.0455 18.8501 21.3532C16.6399 23.1992 13.6316 23.9377 10.6233 23.1992C9.82517 23.0146 9.02704 22.6454 8.29031 22.2147C4.79084 20.0609 3.1332 15.9995 4.11551 11.9381C4.29969 11.1381 4.66805 10.3381 5.09781 9.59969C6.81685 6.5844 9.82517 4.92292 13.0177 4.92292C15.4734 4.92292 17.8064 5.9075 19.5254 7.63052C19.8324 7.87667 20.078 8.18435 20.2622 8.49203C20.4464 8.98432 20.0166 9.23047 19.4641 9.23047H15.1665C14.6753 9.23047 14.2455 9.66123 14.2455 10.1535V12.0611C14.2455 12.5534 14.6139 12.9227 15.1051 12.9227H26.3402C26.77 12.9227 27.1383 12.5534 27.1383 12.1227V0.923047C27.0769 0.430755 26.6472 0 26.156 0V0Z" fill="#747474"/>
</svg>
